<svg xmlns="http://www.w3.org/2000/svg" version="1.1" xmlns:xlink="http://www.w3.org/1999/xlink" xmlns:svgjs="http://svgjs.dev/svgjs" width="100%" height="100%" viewBox="0 0 1000 600"><rect width="1000" height="600" x="0" y="0" fill="#e2d1f9"/><g><circle r="166.66666666666666" cx="357.3901163736979" cy="379.6122799261459" fill="#317773" transform="matrix(0.6553994187383124,0,0,0.6553994187383123,0,51.20233050043399)"/><path d="M363.41914669145757 454.61222338287337L301.5820260750179 454.61222338287337L301.5820260750179 452.33949613203947L305.6855613890236 450.9821729127914Q310.2310158906914 449.3723244434507 311.80929870377054 446.6576780049546Q313.41914717311124 443.94303156645856 313.41914717311124 439.39757706479065L313.41914717311124 439.39757706479065Q313.6401067669423 425.76121355978717 313.6401067669423 411.87232480469095Q313.6401067669423 398.0150017058563 313.6401067669423 384.1576786070217L313.6401067669423 384.1576786070217L313.6401067669423 375.066769603686Q313.6401067669423 361.4304060986825 313.6401067669423 347.66777996863266Q313.6401067669423 333.93671949484434 313.41914717311124 320.3003559898408L313.41914717311124 320.3003559898408Q313.41914717311124 315.75490148817295 312.1565209226479 313.0086893934153Q310.92546032844626 310.2940429549192 306.6009654206095 308.71576014184006L306.6009654206095 308.71576014184006L301.5820260750179 306.88495207866833L301.5820260750179 304.61222482783444L411.5883381466321 304.61222482783444L413.19818661597276 342.3331840604252L410.92545936513886 342.3331840604252L397.95197464162857 318.469547926669Q395.6792473907946 314.1450530188323 392.74364135846747 311.65136617416726Q389.77646966987874 309.15767932950223 384.5365707304561 309.15767932950223L384.5365707304561 309.15767932950223L347.95197512328224 309.15767932950223Q347.73101552945116 325.2877296791708 347.73101552945116 342.11222446659417Q347.73101552945116 358.9367192540175 347.73101552945116 375.50868879134816L347.73101552945116 375.50868879134816L371.37369206937626 375.50868879134816Q376.58202535253736 375.50868879134816 379.1072778534639 373.23596154051427Q381.6009646981289 370.9632342896804 383.87369194896286 366.6703050381052L383.87369194896286 366.6703050381052L388.6401060444618 358.02131522243155L390.91283329529574 358.02131522243155L390.91283329529574 397.7940421120253L388.6401060444618 397.7940421120253L383.6527323551318 389.14505229635176Q381.3800051042979 385.0730826386076 378.9810152284176 382.5793957939426Q376.58202535253736 380.05414329301607 371.37369206937626 380.05414329301607L371.37369206937626 380.05414329301607L347.73101552945116 380.05414329301607Q347.73101552945116 395.96323404885345 347.73101552945116 410.4203046166582Q347.73101552945116 424.84580952820124 347.95197512328224 438.70313262703587L347.95197512328224 438.70313262703587Q347.95197512328224 447.57308203654054 356.6009649389558 450.2877284750366L356.6009649389558 450.2877284750366L363.41914669145757 452.33949613203947L363.41914669145757 454.61222338287337Z " fill="#e2d1f9" transform="matrix(0.6553994187383124,0,0,0.6553994187383123,0,51.20233050043399)"/><path d="M637.1087806417306 450.7215631730818L607.3901048288221 450.7215631730818L607.3901048288221 448.56673471534816L612.7771759731561 446.6214034687832Q617.0868328886231 444.9154976064108 619.4511585575252 442.4314592454124Q621.8154842264273 439.947420884414 623.3118928776312 435.4282667577784L623.3118928776312 435.4282667577784L667.7253016453614 308.0838905403309L686.0413435360965 308.0838905403309L729.7664043242729 436.2961837754766Q731.5022383596694 441.0248351132808 733.6570668174029 443.5088734742792Q735.8118952751365 445.9929118352776 740.3310494017721 447.69881769764993L740.3310494017721 447.69881769764993L742.9048722818427 448.56673471534816L742.9048722818427 450.7215631730818L688.1961719938299 450.7215631730818L688.1961719938299 448.56673471534816L691.4284146804303 447.48932048648146Q695.9475688070659 445.753486451085 696.9052703438364 442.64095645658097Q697.8929000536309 439.52842646207694 696.5760604405716 435.2187695466099L696.5760604405716 435.2187695466099L686.4603379584335 404.183254120642L638.6351174659585 404.183254120642L628.279969599628 434.56034974008014Q626.7835609484241 439.28900107788434 627.3222680628575 442.1022493421476Q627.8609751772908 444.9154976064108 632.3801293039264 446.6214034687832L632.3801293039264 446.6214034687832L637.1087806417306 448.56673471534816L637.1087806417306 450.7215631730818ZM663.4156447298942 332.8644178042666L640.1315261171624 399.873597205175L685.1734265183982 399.873597205175L663.4156447298942 332.8644178042666ZM805.634322940308 450.7215631730818L750.4467718839101 450.7215631730818L750.4467718839101 448.56673471534816L754.9958541835698 447.0703260641443Q759.3055110990368 445.5439892399164 760.5924225390722 443.059950878918Q761.8793339791075 440.60584069094375 761.8793339791075 436.056758391284L761.8793339791075 436.056758391284L761.8793339791075 323.3771869556342Q761.8793339791075 319.0675300401672 760.6822070581444 316.5834916791688Q759.5150083102054 314.0994533181704 755.4148486059069 312.6030446669665L755.4148486059069 312.6030446669665L750.4467718839101 310.65771342040154L750.4467718839101 308.50288496266796L812.0988083135087 308.50288496266796Q837.5078272109499 308.50288496266796 851.0952177638809 318.07990033037265Q864.6526801437878 327.68684387110136 864.6526801437878 344.7159743218011L864.6526801437878 344.7159743218011Q864.6526801437878 354.1732769974094 857.5597031370816 363.6605078460418Q850.4367979573512 373.1477386946742 835.1435015420479 378.3253126278396L835.1435015420479 378.3253126278396L865.1016027391489 437.79259242668047Q867.046933985714 441.44382953561785 869.5010441736882 443.71837068544767Q871.9850825346866 445.9929118352776 876.0852422389852 447.69881769764993L876.0852422389852 447.69881769764993L878.8984905032485 448.77623192651674L878.8984905032485 450.7215631730818L840.3210754752132 450.7215631730818L808.4176430315472 382.8444667544752L793.7827664227735 382.8444667544752L793.7827664227735 436.056758391284Q793.7827664227735 440.15691809558257 795.0696778628088 442.76066914867727Q796.3565893028442 445.33449202874795 800.4567490071427 446.6214034687832L800.4567490071427 446.6214034687832L805.634322940308 448.56673471534816L805.634322940308 450.7215631730818ZM793.7827664227735 312.8125418781351L793.7827664227735 378.53480983900806L804.10798611608 378.53480983900806Q819.6407079155761 378.53480983900806 826.5241877111138 370.24470591133877Q833.4076675066514 361.9546019836695 833.4076675066514 345.5539631664752L833.4076675066514 345.5539631664752Q833.4076675066514 328.97375531113664 826.9431821334508 320.8931485946358Q820.4786967602502 312.8125418781351 805.1854003449469 312.8125418781351L805.1854003449469 312.8125418781351L793.7827664227735 312.8125418781351ZM959.9140548794248 454.61222566621177L959.9140548794248 454.61222566621177Q938.994261935595 454.61222566621177 922.0848441769915 446.08269635434976Q905.175426418388 437.583095215512 895.2692011474185 420.7634619759807Q885.362975876449 403.97375690947354 885.362975876449 379.6122240678749L885.362975876449 379.6122240678749Q885.362975876449 361.08668496597124 891.3785386542885 347.0802999907032Q897.4240296051521 333.0739150154352 907.8689619905549 323.5866841668028Q918.3138943759577 314.0994533181704 931.991069447961 309.3708019803662Q945.6981726929882 304.612222469538 960.9914691082915 304.612222469538L960.9914691082915 304.612222469538Q973.2620200481631 304.612222469538 983.6171679144937 307.4254707338012Q993.9423876078002 310.2387189980644 1003.0106240340956 315.17686754703715L1003.0106240340956 315.17686754703715L1003.8785410517938 341.6932288463694L1001.7237125940603 341.6932288463694L990.9495703053926 324.45460118450103Q988.794741847659 320.35444148020247 986.1909907945644 317.00248610150584Q983.6171679144937 313.68045889583334 979.7265054213638 311.9446248604369L979.7265054213638 311.9446248604369Q976.4942627347634 310.448216209233 973.3817327402594 309.7000118836311Q970.2392745727313 308.921879385005 965.5106232349272 308.921879385005L965.5106232349272 308.921879385005Q953.000646910863 308.921879385005 942.7652117366287 315.6257901423983Q932.5297765623943 322.2997727267675 926.3945010924585 337.7127818341671Q920.2592256225228 353.0958627685427 920.2592256225228 379.82172127904346L920.2592256225228 379.82172127904346Q920.2592256225228 406.33808257837563 926.0652911891938 421.75109168577524Q931.9012849288887 437.1341726201508 941.9272228919544 443.71837068544767Q951.9232326819963 450.3025687507446 964.4332090060603 450.3025687507446L964.4332090060603 450.3025687507446Q971.316688801598 450.3025687507446 975.4168485058966 449.3149390409501Q979.5170082101952 448.3572375041797 983.6171679144937 446.41190625761465L983.6171679144937 446.41190625761465Q987.7173276187923 444.6760722222182 989.8721560765258 441.3540450165457Q992.0269845342593 438.00208963784905 993.7328903966318 434.1413553177431L993.7328903966318 434.1413553177431L1003.2201212452642 413.01206516274476L1005.3749497029976 413.01206516274476L1004.716529896468 443.8380833775441Q995.6782216431967 448.56673471534816 984.485084932192 451.58948019078Q973.2620200481631 454.61222566621177 959.9140548794248 454.61222566621177ZM1076.693786019373 451.37998297961144L1061.8194840264068 451.37998297961144L1023.6909915937329 323.16768974446575Q1022.194582942529 318.19961302246895 1020.4587489071324 315.9250718726391Q1018.7229148717361 313.68045889583334 1014.413257956269 311.7351276492683L1014.413257956269 311.7351276492683L1011.8394350761982 310.65771342040154L1011.8394350761982 308.50288496266796L1068.9423892061372 308.50288496266796L1068.9423892061372 310.65771342040154L1064.4232350795014 312.393547455798Q1059.4551583575048 314.3089505293389 1057.7492524951324 317.12219879360214Q1056.013418459736 319.9354470578654 1057.5098271109398 324.8735956068381L1057.5098271109398 324.8735956068381L1081.0034429348402 414.5084738139486L1106.4423900053057 339.3289031774673L1101.4743132833087 324.00567858913985Q1099.977904632105 319.48652446250424 1098.6909931920698 317.12219879360214Q1097.3741535790105 314.75787312470004 1094.3813362766025 313.23153630047216L1094.3813362766025 313.23153630047216L1089.6227567657743 310.65771342040154L1089.6227567657743 308.50288496266796L1143.7029654202815 308.50288496266796L1143.7029654202815 310.65771342040154L1137.0289828359123 313.23153630047216Q1132.719325920445 314.75787312470004 1132.1806188060118 317.6609059080355Q1131.6419116915783 320.563938691371 1133.1682485158062 325.08309281800666L1133.1682485158062 325.08309281800666L1160.5225986598125 416.66330227168214L1186.3805401526151 326.8189268534031Q1187.8769488038188 321.64135292023775 1187.4579543814818 317.78061860013185Q1187.038959959145 313.8899561070018 1182.0708832371479 312.15412207160534L1182.0708832371479 312.15412207160534L1177.5517291105125 310.65771342040154L1177.5517291105125 308.50288496266796L1207.5098303076134 308.50288496266796L1207.5098303076134 310.65771342040154L1201.883333779087 312.8125418781351Q1197.5736768636198 314.3089505293389 1195.8677710012475 317.5411932159392Q1194.131936965851 320.7734359025395 1192.8450255258158 325.5320154133678L1192.8450255258158 325.5320154133678L1157.0808587620436 451.37998297961144L1142.2065567690775 451.37998297961144L1109.8841299030744 350.103045466135L1076.693786019373 451.37998297961144ZM1305.5545251344897 450.7215631730818L1244.9799029337578 450.7215631730818L1244.9799029337578 448.56673471534816L1251.4443883069584 446.8309006799517Q1258.9862879090258 444.6760722222182 1258.9862879090258 436.056758391284L1258.9862879090258 436.056758391284L1258.9862879090258 395.11501769434676L1223.4316183564224 322.71876714910456Q1221.5162152828816 318.4091102336374 1219.9000939395814 316.2542817759039Q1218.2839725962813 314.0994533181704 1215.051729909681 312.6030446669665L1215.051729909681 312.6030446669665L1211.1610674165508 310.65771342040154L1211.1610674165508 308.50288496266796L1268.9224413530196 308.50288496266796L1268.9224413530196 310.65771342040154L1265.0317788598895 312.15412207160534Q1260.303127522085 314.0994533181704 1259.8542049267242 317.451408696867Q1259.435210504387 320.7734359025395 1261.5900389621206 325.7415126245363L1261.5900389621206 325.7415126245363L1286.999057859562 382.18604694794544L1315.460750405459 323.5866841668028Q1317.1666562678315 320.1449442690339 1316.8673745375906 316.4637789870725Q1316.5381646343258 312.8125418781351 1312.2285077188587 311.7351276492683L1312.2285077188587 311.7351276492683L1309.2057622434272 310.65771342040154L1309.2057622434272 308.50288496266796L1335.0637037362294 308.50288496266796L1335.0637037362294 310.65771342040154L1330.963544031931 312.15412207160534Q1326.8633843276325 313.68045889583334 1324.9479812540915 316.3739944680002Q1323.0026500075264 319.0675300401672 1321.0573187609616 323.16768974446575L1321.0573187609616 323.16768974446575L1291.5481401592215 385.2087924233773L1291.5481401592215 436.056758391284Q1291.5481401592215 440.36641530675115 1293.1642615025216 443.059950878918Q1294.7803828458218 445.753486451085 1298.8506143770965 446.8309006799517L1298.8506143770965 446.8309006799517L1305.5545251344897 448.56673471534816L1305.5545251344897 450.7215631730818Z " fill="#317773" transform="matrix(0.6553994187383124,0,0,0.6553994187383123,0,51.20233050043399)"/></g></svg>